# xmcd
#
# Track frame offsets:
#	150
#	17047
#	31899
#	48855
#	66177
#	79840
#	97134
#	114129
#	130064
#	149722
#	163627
#	179440
#	195244
#	210914
#
# Disc length: 3032 seconds
#
# Revision: 0
# Processed by: cddbd v1.5.2PL0 Copyright (c) Steve Scherf et al.
# Submitted via: EasyCDDAExtractor 11.1.0.1
#
DISCID=b70bd60e
DTITLE=Various Artist - Mr music country
DYEAR=2008
DGENRE=country
TTITLE0=DiverseKen Holloway - Who I am
TTITLE1=Kevin Fowler - Get you biscuites in the oven
TTITLE2=The Mark Newton Band - Blessings
TTITLE3=Arly Karlsen and Joe Sun - Honky Tonk hysterical society
TTITLE4=Dottie Jack - He's doing it to me again
TTITLE5=Bobby Flores - I let my wind wonder
TTITLE6=Joe Bonson - Grandpa was a farmer
TTITLE7=John Starling and Caroline Star and Emmylou Harris - In my hour of darknes
TTITLE7=s
TTITLE8=Jonathan Sherrill - I'd choose you
TTITLE9=Ring of Fire and Marielle Sjödin - Queen of Memphis
TTITLE10=Aaron Watson - I met Jesus in a bar
TTITLE11=Red Meat and Jill Olson - Queen of King city
TTITLE12=Ron Williams - Texas honky tonk
TTITLE13=Bruce Robinson and Kelly Willis - Lady yesterdady
EXTD=
EXTT0=
EXTT1=
EXTT2=
EXTT3=
EXTT4=
EXTT5=
EXTT6=
EXTT7=
EXTT8=
EXTT9=
EXTT10=
EXTT11=
EXTT12=
EXTT13=
PLAYORDER=
